<?xml version="1.0" encoding="utf-8"?>
<!-- Generator: Adobe Illustrator 17.0.0, SVG Export Plug-In . SVG Version: 6.00 Build 0)  -->
<!DOCTYPE svg PUBLIC "-//W3C//DTD SVG 1.1//EN" "http://www.w3.org/Graphics/SVG/1.1/DTD/svg11.dtd">
<svg version="1.1" id="图层_1" xmlns="http://www.w3.org/2000/svg" xmlns:xlink="http://www.w3.org/1999/xlink" x="0px" y="0px"
	 width="1440px" height="716px" viewBox="0 0 1440 716" enable-background="new 0 0 1440 716" xml:space="preserve">
<g>
	<defs>
		<rect id="SVGID_1_" width="1440" height="716"/>
	</defs>
	<clipPath id="SVGID_2_">
		<use xlink:href="#SVGID_1_"  overflow="visible"/>
	</clipPath>
	<path opacity="0.1" clip-path="url(#SVGID_2_)" fill="none" stroke="#04173F" stroke-width="2" stroke-miterlimit="10" d="
		M105.939,217.938c-24.781,9.213-14.133,43.208,12.252,34.579c10.542-3.448,13.169-21.271,2.896-25.043
		c-16.124-5.92-20.21,21.968-2.049,16.846c7.263-2.048-1.148-18.601-5.873-6.169"/>
	<path opacity="0.1" clip-path="url(#SVGID_2_)" fill="none" stroke="#04173F" stroke-width="2" stroke-miterlimit="10" d="
		M344.467,609.781c-17.133-20.135-45.436,1.497-28.303,23.34c6.845,8.727,24.492,5.099,24.523-5.844
		c0.048-17.176-27.556-11.477-16.531,3.836c4.409,6.124,17.087-7.441,3.788-7.629"/>
	<path opacity="0.1" clip-path="url(#SVGID_2_)" fill="none" stroke="#04173F" stroke-width="2" stroke-miterlimit="10" d="
		M942.185,18.825c-12.886-15.144-34.172,1.126-21.287,17.554c5.148,6.564,18.42,3.835,18.443-4.395
		c0.036-12.918-20.724-8.632-12.433,2.885c3.316,4.606,12.851-5.596,2.849-5.738"/>
</g>
<g>
	<defs>
		<circle id="SVGID_3_" cx="231.943" cy="350.295" r="8.798"/>
	</defs>
	<clipPath id="SVGID_4_">
		<use xlink:href="#SVGID_3_"  overflow="visible"/>
	</clipPath>
	<g clip-path="url(#SVGID_4_)">
		<defs>
			<rect id="SVGID_5_" width="1440" height="716"/>
		</defs>
		<clipPath id="SVGID_6_">
			<use xlink:href="#SVGID_5_"  overflow="visible"/>
		</clipPath>
		<rect x="218.142" y="336.497" clip-path="url(#SVGID_6_)" fill="#DAE5EE" width="27.602" height="27.596"/>
	</g>
</g>
<g>
	<defs>
		<circle id="SVGID_7_" cx="238.984" cy="195.453" r="8.798"/>
	</defs>
	<clipPath id="SVGID_8_">
		<use xlink:href="#SVGID_7_"  overflow="visible"/>
	</clipPath>
	<g clip-path="url(#SVGID_8_)">
		<defs>
			<rect id="SVGID_9_" width="1440" height="716"/>
		</defs>
		<clipPath id="SVGID_10_">
			<use xlink:href="#SVGID_9_"  overflow="visible"/>
		</clipPath>
		<rect x="225.183" y="181.655" clip-path="url(#SVGID_10_)" fill="#DAE5EE" width="27.602" height="27.596"/>
	</g>
</g>
<g>
	<defs>
		<circle id="SVGID_11_" cx="91.123" cy="607.192" r="12.317"/>
	</defs>
	<clipPath id="SVGID_12_">
		<use xlink:href="#SVGID_11_"  overflow="visible"/>
	</clipPath>
	<g clip-path="url(#SVGID_12_)">
		<defs>
			<rect id="SVGID_13_" width="1440" height="716"/>
		</defs>
		<clipPath id="SVGID_14_">
			<use xlink:href="#SVGID_13_"  overflow="visible"/>
		</clipPath>
		<rect x="73.801" y="589.875" clip-path="url(#SVGID_14_)" fill="#DAE5EE" width="34.643" height="34.634"/>
	</g>
</g>
<g>
	<defs>
		<circle id="SVGID_15_" cx="615.677" cy="667.018" r="8.798"/>
	</defs>
	<clipPath id="SVGID_16_">
		<use xlink:href="#SVGID_15_"  overflow="visible"/>
	</clipPath>
	<g clip-path="url(#SVGID_16_)">
		<defs>
			<rect id="SVGID_17_" width="1440" height="716"/>
		</defs>
		<clipPath id="SVGID_18_">
			<use xlink:href="#SVGID_17_"  overflow="visible"/>
		</clipPath>
		<rect x="601.876" y="653.22" clip-path="url(#SVGID_18_)" fill="#DAE5EE" width="27.602" height="27.596"/>
	</g>
</g>
<g>
	<defs>
		<circle id="SVGID_19_" cx="1256.407" cy="376.689" r="8.798"/>
	</defs>
	<clipPath id="SVGID_20_">
		<use xlink:href="#SVGID_19_"  overflow="visible"/>
	</clipPath>
	<g clip-path="url(#SVGID_20_)">
		<defs>
			<rect id="SVGID_21_" width="1440" height="716"/>
		</defs>
		<clipPath id="SVGID_22_">
			<use xlink:href="#SVGID_21_"  overflow="visible"/>
		</clipPath>
		<rect x="1242.606" y="362.891" clip-path="url(#SVGID_22_)" fill="#DAE5EE" width="27.602" height="27.596"/>
	</g>
</g>
<g>
	<defs>
		<circle id="SVGID_23_" cx="495.98" cy="624.788" r="5.279"/>
	</defs>
	<clipPath id="SVGID_24_">
		<use xlink:href="#SVGID_23_"  overflow="visible"/>
	</clipPath>
	<g clip-path="url(#SVGID_24_)">
		<defs>
			<rect id="SVGID_25_" width="1440" height="716"/>
		</defs>
		<clipPath id="SVGID_26_">
			<use xlink:href="#SVGID_25_"  overflow="visible"/>
		</clipPath>
		<rect x="485.699" y="614.509" clip-path="url(#SVGID_26_)" fill="#DAE5EE" width="20.561" height="20.557"/>
	</g>
</g>
<g>
	<defs>
		<circle id="SVGID_27_" cx="281.23" cy="522.733" r="5.279"/>
	</defs>
	<clipPath id="SVGID_28_">
		<use xlink:href="#SVGID_27_"  overflow="visible"/>
	</clipPath>
	<g clip-path="url(#SVGID_28_)">
		<defs>
			<rect id="SVGID_29_" width="1440" height="716"/>
		</defs>
		<clipPath id="SVGID_30_">
			<use xlink:href="#SVGID_29_"  overflow="visible"/>
		</clipPath>
		<rect x="270.949" y="512.454" clip-path="url(#SVGID_30_)" fill="#DAE5EE" width="20.561" height="20.557"/>
	</g>
</g>
<g>
	<defs>
		<circle id="SVGID_31_" cx="406.207" cy="399.563" r="5.279"/>
	</defs>
	<clipPath id="SVGID_32_">
		<use xlink:href="#SVGID_31_"  overflow="visible"/>
	</clipPath>
	<g clip-path="url(#SVGID_32_)">
		<defs>
			<rect id="SVGID_33_" width="1440" height="716"/>
		</defs>
		<clipPath id="SVGID_34_">
			<use xlink:href="#SVGID_33_"  overflow="visible"/>
		</clipPath>
		<rect x="395.927" y="389.284" clip-path="url(#SVGID_34_)" fill="#DAE5EE" width="20.561" height="20.557"/>
	</g>
</g>
<g>
	<defs>
		<circle id="SVGID_35_" cx="416.769" cy="200.732" r="5.279"/>
	</defs>
	<clipPath id="SVGID_36_">
		<use xlink:href="#SVGID_35_"  overflow="visible"/>
	</clipPath>
	<g clip-path="url(#SVGID_36_)">
		<defs>
			<rect id="SVGID_37_" width="1440" height="716"/>
		</defs>
		<clipPath id="SVGID_38_">
			<use xlink:href="#SVGID_37_"  overflow="visible"/>
		</clipPath>
		<rect x="406.488" y="190.453" clip-path="url(#SVGID_38_)" fill="#DAE5EE" width="20.561" height="20.557"/>
	</g>
</g>
<g>
	<defs>
		<circle id="SVGID_39_" cx="300.592" cy="75.802" r="5.279"/>
	</defs>
	<clipPath id="SVGID_40_">
		<use xlink:href="#SVGID_39_"  overflow="visible"/>
	</clipPath>
	<g clip-path="url(#SVGID_40_)">
		<defs>
			<rect id="SVGID_41_" width="1440" height="716"/>
		</defs>
		<clipPath id="SVGID_42_">
			<use xlink:href="#SVGID_41_"  overflow="visible"/>
		</clipPath>
		<rect x="290.312" y="65.523" clip-path="url(#SVGID_42_)" fill="#DAE5EE" width="20.561" height="20.557"/>
	</g>
</g>
<g>
	<defs>
		<circle id="SVGID_43_" cx="1099.745" cy="128.589" r="5.279"/>
	</defs>
	<clipPath id="SVGID_44_">
		<use xlink:href="#SVGID_43_"  overflow="visible"/>
	</clipPath>
	<g clip-path="url(#SVGID_44_)">
		<defs>
			<rect id="SVGID_45_" width="1440" height="716"/>
		</defs>
		<clipPath id="SVGID_46_">
			<use xlink:href="#SVGID_45_"  overflow="visible"/>
		</clipPath>
		<rect x="1089.464" y="118.31" clip-path="url(#SVGID_46_)" fill="#DAE5EE" width="20.562" height="20.557"/>
	</g>
</g>
<g>
	<defs>
		<circle id="SVGID_47_" cx="775.859" cy="100.436" r="5.279"/>
	</defs>
	<clipPath id="SVGID_48_">
		<use xlink:href="#SVGID_47_"  overflow="visible"/>
	</clipPath>
	<g clip-path="url(#SVGID_48_)">
		<defs>
			<rect id="SVGID_49_" width="1440" height="716"/>
		</defs>
		<clipPath id="SVGID_50_">
			<use xlink:href="#SVGID_49_"  overflow="visible"/>
		</clipPath>
		<rect x="765.579" y="90.157" clip-path="url(#SVGID_50_)" fill="#DAE5EE" width="20.562" height="20.557"/>
	</g>
</g>
<g>
	<defs>
		<circle id="SVGID_51_" cx="1089.184" cy="605.433" r="5.279"/>
	</defs>
	<clipPath id="SVGID_52_">
		<use xlink:href="#SVGID_51_"  overflow="visible"/>
	</clipPath>
	<g clip-path="url(#SVGID_52_)">
		<defs>
			<rect id="SVGID_53_" width="1440" height="716"/>
		</defs>
		<clipPath id="SVGID_54_">
			<use xlink:href="#SVGID_53_"  overflow="visible"/>
		</clipPath>
		<rect x="1078.903" y="595.154" clip-path="url(#SVGID_54_)" fill="#DAE5EE" width="20.561" height="20.557"/>
	</g>
</g>
<g>
	<defs>
		<circle id="SVGID_55_" cx="1001.171" cy="420.678" r="5.279"/>
	</defs>
	<clipPath id="SVGID_56_">
		<use xlink:href="#SVGID_55_"  overflow="visible"/>
	</clipPath>
	<g clip-path="url(#SVGID_56_)">
		<defs>
			<rect id="SVGID_57_" width="1440" height="716"/>
		</defs>
		<clipPath id="SVGID_58_">
			<use xlink:href="#SVGID_57_"  overflow="visible"/>
		</clipPath>
		<rect x="990.891" y="410.399" clip-path="url(#SVGID_58_)" fill="#DAE5EE" width="20.562" height="20.557"/>
	</g>
</g>
<g>
	<defs>
		<circle id="SVGID_59_" cx="925.481" cy="484.022" r="5.279"/>
	</defs>
	<clipPath id="SVGID_60_">
		<use xlink:href="#SVGID_59_"  overflow="visible"/>
	</clipPath>
	<g clip-path="url(#SVGID_60_)">
		<defs>
			<rect id="SVGID_61_" width="1440" height="716"/>
		</defs>
		<clipPath id="SVGID_62_">
			<use xlink:href="#SVGID_61_"  overflow="visible"/>
		</clipPath>
		<rect x="915.2" y="473.744" clip-path="url(#SVGID_62_)" fill="#DAE5EE" width="20.561" height="20.557"/>
	</g>
</g>
<g>
	<defs>
		<circle id="SVGID_63_" cx="1210.641" cy="505.137" r="5.279"/>
	</defs>
	<clipPath id="SVGID_64_">
		<use xlink:href="#SVGID_63_"  overflow="visible"/>
	</clipPath>
	<g clip-path="url(#SVGID_64_)">
		<defs>
			<rect id="SVGID_65_" width="1440" height="716"/>
		</defs>
		<clipPath id="SVGID_66_">
			<use xlink:href="#SVGID_65_"  overflow="visible"/>
		</clipPath>
		<rect x="1200.36" y="494.859" clip-path="url(#SVGID_66_)" fill="#DAE5EE" width="20.561" height="20.557"/>
	</g>
</g>
<g>
	<defs>
		<circle id="SVGID_67_" cx="745.935" cy="672.297" r="3.519"/>
	</defs>
	<clipPath id="SVGID_68_">
		<use xlink:href="#SVGID_67_"  overflow="visible"/>
	</clipPath>
	<g clip-path="url(#SVGID_68_)">
		<defs>
			<rect id="SVGID_69_" width="1440" height="716"/>
		</defs>
		<clipPath id="SVGID_70_">
			<use xlink:href="#SVGID_69_"  overflow="visible"/>
		</clipPath>
		<rect x="737.415" y="663.777" clip-path="url(#SVGID_70_)" fill="#DAE5EE" width="17.041" height="17.038"/>
	</g>
</g>
<g>
	<defs>
		<circle id="SVGID_71_" cx="833.948" cy="579.039" r="3.519"/>
	</defs>
	<clipPath id="SVGID_72_">
		<use xlink:href="#SVGID_71_"  overflow="visible"/>
	</clipPath>
	<g clip-path="url(#SVGID_72_)">
		<defs>
			<rect id="SVGID_73_" width="1440" height="716"/>
		</defs>
		<clipPath id="SVGID_74_">
			<use xlink:href="#SVGID_73_"  overflow="visible"/>
		</clipPath>
		<rect x="825.427" y="570.52" clip-path="url(#SVGID_74_)" fill="#DAE5EE" width="17.041" height="17.038"/>
	</g>
</g>
<g>
	<defs>
		<circle id="SVGID_75_" cx="691.368" cy="600.154" r="3.519"/>
	</defs>
	<clipPath id="SVGID_76_">
		<use xlink:href="#SVGID_75_"  overflow="visible"/>
	</clipPath>
	<g clip-path="url(#SVGID_76_)">
		<defs>
			<rect id="SVGID_77_" width="1440" height="716"/>
		</defs>
		<clipPath id="SVGID_78_">
			<use xlink:href="#SVGID_77_"  overflow="visible"/>
		</clipPath>
		<rect x="682.847" y="591.635" clip-path="url(#SVGID_78_)" fill="#DAE5EE" width="17.041" height="17.038"/>
	</g>
</g>
<g>
	<defs>
		<circle id="SVGID_79_" cx="473.097" cy="440.033" r="3.519"/>
	</defs>
	<clipPath id="SVGID_80_">
		<use xlink:href="#SVGID_79_"  overflow="visible"/>
	</clipPath>
	<g clip-path="url(#SVGID_80_)">
		<defs>
			<rect id="SVGID_81_" width="1440" height="716"/>
		</defs>
		<clipPath id="SVGID_82_">
			<use xlink:href="#SVGID_81_"  overflow="visible"/>
		</clipPath>
		<rect x="464.576" y="431.514" clip-path="url(#SVGID_82_)" fill="#DAE5EE" width="17.041" height="17.038"/>
	</g>
</g>
<g>
	<defs>
		<circle id="SVGID_83_" cx="418.529" cy="156.742" r="3.519"/>
	</defs>
	<clipPath id="SVGID_84_">
		<use xlink:href="#SVGID_83_"  overflow="visible"/>
	</clipPath>
	<g clip-path="url(#SVGID_84_)">
		<defs>
			<rect id="SVGID_85_" width="1440" height="716"/>
		</defs>
		<clipPath id="SVGID_86_">
			<use xlink:href="#SVGID_85_"  overflow="visible"/>
		</clipPath>
		<rect x="410.009" y="148.223" clip-path="url(#SVGID_86_)" fill="#DAE5EE" width="17.041" height="17.038"/>
	</g>
</g>
<g>
	<defs>
		<circle id="SVGID_87_" cx="492.46" cy="230.644" r="3.519"/>
	</defs>
	<clipPath id="SVGID_88_">
		<use xlink:href="#SVGID_87_"  overflow="visible"/>
	</clipPath>
	<g clip-path="url(#SVGID_88_)">
		<defs>
			<rect id="SVGID_89_" width="1440" height="716"/>
		</defs>
		<clipPath id="SVGID_90_">
			<use xlink:href="#SVGID_89_"  overflow="visible"/>
		</clipPath>
		<rect x="483.939" y="222.125" clip-path="url(#SVGID_90_)" fill="#DAE5EE" width="17.041" height="17.038"/>
	</g>
</g>
<g>
	<defs>
		<circle id="SVGID_91_" cx="1244.085" cy="552.646" r="3.519"/>
	</defs>
	<clipPath id="SVGID_92_">
		<use xlink:href="#SVGID_91_"  overflow="visible"/>
	</clipPath>
	<g clip-path="url(#SVGID_92_)">
		<defs>
			<rect id="SVGID_93_" width="1440" height="716"/>
		</defs>
		<clipPath id="SVGID_94_">
			<use xlink:href="#SVGID_93_"  overflow="visible"/>
		</clipPath>
		<rect x="1235.565" y="544.127" clip-path="url(#SVGID_94_)" fill="#DAE5EE" width="17.041" height="17.038"/>
	</g>
</g>
<g>
	<defs>
		<circle id="SVGID_95_" cx="999.411" cy="95.157" r="3.519"/>
	</defs>
	<clipPath id="SVGID_96_">
		<use xlink:href="#SVGID_95_"  overflow="visible"/>
	</clipPath>
	<g clip-path="url(#SVGID_96_)">
		<defs>
			<rect id="SVGID_97_" width="1440" height="716"/>
		</defs>
		<clipPath id="SVGID_98_">
			<use xlink:href="#SVGID_97_"  overflow="visible"/>
		</clipPath>
		<rect x="990.891" y="86.638" clip-path="url(#SVGID_98_)" fill="#DAE5EE" width="17.041" height="17.038"/>
	</g>
</g>
<g>
	<defs>
		<circle id="SVGID_99_" cx="964.206" cy="170.819" r="3.519"/>
	</defs>
	<clipPath id="SVGID_100_">
		<use xlink:href="#SVGID_99_"  overflow="visible"/>
	</clipPath>
	<g clip-path="url(#SVGID_100_)">
		<defs>
			<rect id="SVGID_101_" width="1440" height="716"/>
		</defs>
		<clipPath id="SVGID_102_">
			<use xlink:href="#SVGID_101_"  overflow="visible"/>
		</clipPath>
		<rect x="955.685" y="162.3" clip-path="url(#SVGID_102_)" fill="#DAE5EE" width="17.041" height="17.038"/>
	</g>
</g>
<g>
	<defs>
		<circle id="SVGID_103_" cx="877.954" cy="146.185" r="3.519"/>
	</defs>
	<clipPath id="SVGID_104_">
		<use xlink:href="#SVGID_103_"  overflow="visible"/>
	</clipPath>
	<g clip-path="url(#SVGID_104_)">
		<defs>
			<rect id="SVGID_105_" width="1440" height="716"/>
		</defs>
		<clipPath id="SVGID_106_">
			<use xlink:href="#SVGID_105_"  overflow="visible"/>
		</clipPath>
		<rect x="869.433" y="137.666" clip-path="url(#SVGID_106_)" fill="#DAE5EE" width="17.041" height="17.038"/>
	</g>
</g>
<g>
	<defs>
		<ellipse id="SVGID_107_" cx="187.937" cy="469.946" rx="26.404" ry="26.394"/>
	</defs>
	<clipPath id="SVGID_108_">
		<use xlink:href="#SVGID_107_"  overflow="visible"/>
	</clipPath>
	<g clip-path="url(#SVGID_108_)">
		<defs>
			<rect id="SVGID_109_" width="1440" height="716"/>
		</defs>
		<clipPath id="SVGID_110_">
			<use xlink:href="#SVGID_109_"  overflow="visible"/>
		</clipPath>
		<rect x="156.533" y="438.552" clip-path="url(#SVGID_110_)" fill="#CEE3F5" width="62.807" height="62.787"/>
	</g>
</g>
<g>
	<defs>
		<path id="SVGID_111_" d="M194.997,477.214c15.432-12.949,24.512-27.534,20.28-32.578c-4.232-5.043-20.172,1.366-35.604,14.315
			c-15.432,12.949-24.512,27.535-20.28,32.578C163.624,496.572,179.565,490.163,194.997,477.214z M196.949,479.54
			c19.363-16.247,30.755-34.548,25.445-40.875c-5.309-6.328-25.31,1.714-44.673,17.961c-19.363,16.247-30.755,34.548-25.445,40.875
			C157.585,503.828,177.586,495.787,196.949,479.54z"/>
	</defs>
	<clipPath id="SVGID_112_">
		<use xlink:href="#SVGID_111_"  overflow="visible"/>
	</clipPath>
	<g clip-path="url(#SVGID_112_)">
		<defs>
			<rect id="SVGID_113_" width="1440" height="716"/>
		</defs>
		<clipPath id="SVGID_114_">
			<use xlink:href="#SVGID_113_"  overflow="visible"/>
		</clipPath>
	</g>
</g>
<g>
	<defs>
		<rect id="SVGID_115_" width="1440" height="716"/>
	</defs>
	<clipPath id="SVGID_116_">
		<use xlink:href="#SVGID_115_"  overflow="visible"/>
	</clipPath>
	<path clip-path="url(#SVGID_116_)" fill="#B6BDCA" d="M222.394,438.664c-5.31-6.328-25.31,1.714-44.673,17.961
		c-19.363,16.247-30.755,34.548-25.445,40.875c5.31,6.328,25.31-1.714,44.673-17.961
		C216.311,463.292,227.704,444.992,222.394,438.664z M194.997,477.214c-15.432,12.949-31.373,19.358-35.604,14.315
		s4.848-19.629,20.28-32.578c15.432-12.949,31.373-19.358,35.604-14.315C219.509,449.679,210.429,464.265,194.997,477.214z"/>
</g>
<g>
	<defs>
		<path id="SVGID_117_" d="M209.493,454.701c-4.783-6.746-12.655-11.148-21.556-11.148c-14.582,0-26.404,11.817-26.404,26.394
			c0,8.707,4.218,16.43,10.724,21.237L209.493,454.701z"/>
	</defs>
	<clipPath id="SVGID_118_">
		<use xlink:href="#SVGID_117_"  overflow="visible"/>
	</clipPath>
	<g clip-path="url(#SVGID_118_)">
		<defs>
			<rect id="SVGID_119_" width="1440" height="716"/>
		</defs>
		<clipPath id="SVGID_120_">
			<use xlink:href="#SVGID_119_"  overflow="visible"/>
		</clipPath>
		<rect x="156.533" y="438.552" clip-path="url(#SVGID_120_)" fill="#CEE3F5" width="57.96" height="57.631"/>
	</g>
</g>
<g>
	<defs>
		<ellipse id="SVGID_121_" cx="928.093" cy="579.381" rx="18.251" ry="18.329"/>
	</defs>
	<clipPath id="SVGID_122_">
		<use xlink:href="#SVGID_121_"  overflow="visible"/>
	</clipPath>
	<g clip-path="url(#SVGID_122_)">
		<defs>
			<rect id="SVGID_123_" width="1440" height="716"/>
		</defs>
		<clipPath id="SVGID_124_">
			<use xlink:href="#SVGID_123_"  overflow="visible"/>
		</clipPath>
		<rect x="904.841" y="556.053" clip-path="url(#SVGID_124_)" fill="#CEE3F5" width="46.503" height="46.658"/>
	</g>
</g>
<g>
	<defs>
		<path id="SVGID_125_" d="M932.998,584.429c10.667-8.951,16.932-19.046,13.994-22.548c-2.939-3.502-13.968,0.915-24.636,9.866
			s-16.933,19.046-13.994,22.548C911.3,597.797,922.33,593.38,932.998,584.429z M934.353,586.044
			c13.384-11.231,21.245-23.897,17.558-28.292c-3.687-4.394-17.526,1.148-30.911,12.379c-13.384,11.231-21.245,23.897-17.558,28.292
			S920.969,597.275,934.353,586.044z"/>
	</defs>
	<clipPath id="SVGID_126_">
		<use xlink:href="#SVGID_125_"  overflow="visible"/>
	</clipPath>
	<g clip-path="url(#SVGID_126_)">
		<defs>
			<rect id="SVGID_127_" width="1440" height="716"/>
		</defs>
		<clipPath id="SVGID_128_">
			<use xlink:href="#SVGID_127_"  overflow="visible"/>
		</clipPath>
	</g>
</g>
<g>
	<defs>
		<rect id="SVGID_129_" width="1440" height="716"/>
	</defs>
	<clipPath id="SVGID_130_">
		<use xlink:href="#SVGID_129_"  overflow="visible"/>
	</clipPath>
	<path clip-path="url(#SVGID_130_)" fill="#B6BDCA" d="M951.911,557.752c-3.687-4.394-17.526,1.148-30.911,12.379
		c-13.384,11.231-21.245,23.897-17.558,28.292c3.687,4.394,17.526-1.148,30.911-12.379
		C947.737,574.813,955.598,562.146,951.911,557.752z M932.998,584.429c-10.667,8.951-21.697,13.368-24.636,9.866
		c-2.939-3.502,3.327-13.597,13.994-22.548c10.667-8.951,21.697-13.368,24.636-9.866
		C949.93,565.383,943.665,575.478,932.998,584.429z"/>
</g>
<g>
	<defs>
		<path id="SVGID_131_" d="M942.993,568.794c-3.306-4.685-8.748-7.742-14.901-7.742c-10.08,0-18.251,8.206-18.251,18.329
			c0,6.047,2.916,11.41,7.413,14.748L942.993,568.794z"/>
	</defs>
	<clipPath id="SVGID_132_">
		<use xlink:href="#SVGID_131_"  overflow="visible"/>
	</clipPath>
	<g clip-path="url(#SVGID_132_)">
		<defs>
			<rect id="SVGID_133_" width="1440" height="716"/>
		</defs>
		<clipPath id="SVGID_134_">
			<use xlink:href="#SVGID_133_"  overflow="visible"/>
		</clipPath>
		<rect x="904.841" y="556.053" clip-path="url(#SVGID_134_)" fill="#CEE3F5" width="43.152" height="43.077"/>
	</g>
</g>
<g>
	<defs>
		<ellipse id="SVGID_135_" cx="1228.811" cy="198.043" rx="25.552" ry="25.66"/>
	</defs>
	<clipPath id="SVGID_136_">
		<use xlink:href="#SVGID_135_"  overflow="visible"/>
	</clipPath>
	<g clip-path="url(#SVGID_136_)">
		<defs>
			<rect id="SVGID_137_" width="1440" height="716"/>
		</defs>
		<clipPath id="SVGID_138_">
			<use xlink:href="#SVGID_137_"  overflow="visible"/>
		</clipPath>
		<rect x="1198.259" y="167.383" clip-path="url(#SVGID_138_)" fill="#CEE3F5" width="61.104" height="61.321"/>
	</g>
</g>
<g>
	<defs>
		<path id="SVGID_139_" d="M1221.944,205.109c-14.934-12.531-23.706-26.665-19.591-31.568c4.114-4.903,19.555,1.281,34.49,13.812
			c14.934,12.531,23.705,26.665,19.591,31.568C1252.32,223.825,1236.878,217.641,1221.944,205.109z M1220.047,207.371
			c-18.738-15.723-29.744-33.456-24.582-39.608c5.162-6.152,24.537,1.607,43.275,17.33c18.738,15.723,29.744,33.456,24.582,39.608
			C1258.16,230.853,1238.785,223.094,1220.047,207.371z"/>
	</defs>
	<clipPath id="SVGID_140_">
		<use xlink:href="#SVGID_139_"  overflow="visible"/>
	</clipPath>
	<g clip-path="url(#SVGID_140_)">
		<defs>
			<rect id="SVGID_141_" width="1440" height="716"/>
		</defs>
		<clipPath id="SVGID_142_">
			<use xlink:href="#SVGID_141_"  overflow="visible"/>
		</clipPath>
	</g>
</g>
<g>
	<defs>
		<rect id="SVGID_143_" width="1440" height="716"/>
	</defs>
	<clipPath id="SVGID_144_">
		<use xlink:href="#SVGID_143_"  overflow="visible"/>
	</clipPath>
	<path clip-path="url(#SVGID_144_)" fill="#B6BDCA" d="M1238.74,185.093c-18.738-15.723-38.113-23.482-43.275-17.33
		c-5.162,6.152,5.844,23.885,24.582,39.608s38.113,23.482,43.275,17.33C1268.483,218.549,1257.478,200.816,1238.74,185.093z
		 M1256.434,218.922c-4.114,4.903-19.556-1.281-34.49-13.812c-14.934-12.531-23.706-26.665-19.591-31.568
		c4.114-4.903,19.556,1.281,34.49,13.812C1251.776,199.885,1260.548,214.019,1256.434,218.922z"/>
</g>
<g>
	<defs>
		<path id="SVGID_145_" d="M1207.95,183.222c4.629-6.558,12.247-10.839,20.861-10.839c14.112,0,25.552,11.488,25.552,25.66
			c0,8.466-4.082,15.974-10.378,20.647L1207.95,183.222z"/>
	</defs>
	<clipPath id="SVGID_146_">
		<use xlink:href="#SVGID_145_"  overflow="visible"/>
	</clipPath>
	<g clip-path="url(#SVGID_146_)">
		<defs>
			<rect id="SVGID_147_" width="1440" height="716"/>
		</defs>
		<clipPath id="SVGID_148_">
			<use xlink:href="#SVGID_147_"  overflow="visible"/>
		</clipPath>
		<rect x="1202.95" y="167.383" clip-path="url(#SVGID_148_)" fill="#CEE3F5" width="56.413" height="56.308"/>
	</g>
</g>
<g>
	<defs>
		<rect id="SVGID_149_" width="1440" height="716"/>
	</defs>
	<clipPath id="SVGID_150_">
		<use xlink:href="#SVGID_149_"  overflow="visible"/>
	</clipPath>
	
		<line clip-path="url(#SVGID_150_)" fill="none" stroke="#F1E4BD" stroke-width="2" stroke-linecap="square" stroke-miterlimit="10" x1="1355.861" y1="620.389" x2="1341.779" y2="662.619"/>
	
		<line clip-path="url(#SVGID_150_)" fill="none" stroke="#F1E4BD" stroke-width="2" stroke-linecap="square" stroke-miterlimit="10" x1="1360.262" y1="656.46" x2="1340.899" y2="626.548"/>
	
		<line clip-path="url(#SVGID_150_)" fill="none" stroke="#F1E4BD" stroke-width="2" stroke-linecap="square" stroke-miterlimit="10" x1="1369.063" y1="642.384" x2="1332.098" y2="640.624"/>
	
		<line clip-path="url(#SVGID_150_)" fill="none" stroke="#F1E4BD" stroke-width="2" stroke-linecap="square" stroke-miterlimit="10" x1="1365.542" y1="631.826" x2="1333.858" y2="651.182"/>
	
		<line clip-path="url(#SVGID_150_)" fill="none" stroke="#F1E4BD" stroke-width="2" stroke-linecap="square" stroke-miterlimit="10" x1="84.711" y1="67.567" x2="75.993" y2="94.594"/>
	
		<line clip-path="url(#SVGID_150_)" fill="none" stroke="#F1E4BD" stroke-width="2" stroke-linecap="square" stroke-miterlimit="10" x1="87.435" y1="90.653" x2="75.448" y2="71.509"/>
	
		<line clip-path="url(#SVGID_150_)" fill="none" stroke="#F1E4BD" stroke-width="2" stroke-linecap="square" stroke-miterlimit="10" x1="92.883" y1="81.644" x2="70" y2="80.518"/>
	
		<line clip-path="url(#SVGID_150_)" fill="none" stroke="#F1E4BD" stroke-width="2" stroke-linecap="square" stroke-miterlimit="10" x1="90.704" y1="74.887" x2="71.09" y2="87.274"/>
	
		<line clip-path="url(#SVGID_150_)" fill="none" stroke="#F1E4BD" stroke-width="2" stroke-linecap="square" stroke-miterlimit="10" x1="1311.603" y1="76.365" x2="1302.886" y2="103.392"/>
	
		<line clip-path="url(#SVGID_150_)" fill="none" stroke="#F1E4BD" stroke-width="2" stroke-linecap="square" stroke-miterlimit="10" x1="1314.327" y1="99.451" x2="1302.341" y2="80.307"/>
	
		<line clip-path="url(#SVGID_150_)" fill="none" stroke="#F1E4BD" stroke-width="2" stroke-linecap="square" stroke-miterlimit="10" x1="1319.776" y1="90.442" x2="1296.893" y2="89.316"/>
	
		<line clip-path="url(#SVGID_150_)" fill="none" stroke="#F1E4BD" stroke-width="2" stroke-linecap="square" stroke-miterlimit="10" x1="1317.597" y1="83.685" x2="1297.983" y2="96.072"/>
	
		<line clip-path="url(#SVGID_150_)" fill="none" stroke="#F1E4BD" stroke-width="2" stroke-linecap="square" stroke-miterlimit="10" x1="1015.882" y1="196.016" x2="1007.164" y2="223.043"/>
	
		<line clip-path="url(#SVGID_150_)" fill="none" stroke="#F1E4BD" stroke-width="2" stroke-linecap="square" stroke-miterlimit="10" x1="1018.606" y1="219.102" x2="1006.62" y2="199.957"/>
	
		<line clip-path="url(#SVGID_150_)" fill="none" stroke="#F1E4BD" stroke-width="2" stroke-linecap="square" stroke-miterlimit="10" x1="1024.054" y1="210.093" x2="1001.171" y2="208.966"/>
	
		<line clip-path="url(#SVGID_150_)" fill="none" stroke="#F1E4BD" stroke-width="2" stroke-linecap="square" stroke-miterlimit="10" x1="1021.875" y1="203.336" x2="1002.261" y2="215.723"/>
	
		<line clip-path="url(#SVGID_150_)" fill="none" stroke="#F1E4BD" stroke-width="2" stroke-linecap="square" stroke-miterlimit="10" x1="450.842" y1="67.567" x2="442.125" y2="94.594"/>
	
		<line clip-path="url(#SVGID_150_)" fill="none" stroke="#F1E4BD" stroke-width="2" stroke-linecap="square" stroke-miterlimit="10" x1="453.566" y1="90.653" x2="441.58" y2="71.509"/>
	
		<line clip-path="url(#SVGID_150_)" fill="none" stroke="#F1E4BD" stroke-width="2" stroke-linecap="square" stroke-miterlimit="10" x1="459.015" y1="81.644" x2="436.132" y2="80.518"/>
	
		<line clip-path="url(#SVGID_150_)" fill="none" stroke="#F1E4BD" stroke-width="2" stroke-linecap="square" stroke-miterlimit="10" x1="456.835" y1="74.887" x2="437.221" y2="87.274"/>
</g>
</svg>
