<?xml version="1.0" encoding="UTF-8"?>
<svg width="15px" height="15px" viewBox="0 0 15 15" version="1.1" xmlns="http://www.w3.org/2000/svg" xmlns:xlink="http://www.w3.org/1999/xlink">
    <title>call_black_24dp</title>
    <g id="注册&amp;登录" stroke="none" stroke-width="1" fill="none" fill-rule="evenodd">
        <g id="登录" transform="translate(-294.000000, -566.000000)">
            <g id="编组-4" transform="translate(294.500000, 563.500000)">
                <g id="call_black_24dp" transform="translate(0.000000, 3.000000)">
                    <polygon id="路径" points="0 0 14 0 14 14 0 14"></polygon>
                    <path d="M3.815,2.91666667 C3.85,3.43583333 3.9375,3.94333333 4.0775,4.4275 L3.3775,5.1275 C3.13833333,4.4275 2.98666667,3.68666667 2.93416667,2.91666667 L3.815,2.91666667 M9.56666667,9.92833333 C10.0625,10.0683333 10.57,10.1558333 11.0833333,10.1908333 L11.0833333,11.06 C10.3133333,11.0075 9.5725,10.8558333 8.86666667,10.6225 L9.56666667,9.92833333 M4.375,1.75 L2.33333333,1.75 C2.0125,1.75 1.75,2.0125 1.75,2.33333333 C1.75,7.81083333 6.18916667,12.25 11.6666667,12.25 C11.9875,12.25 12.25,11.9875 12.25,11.6666667 L12.25,9.63083333 C12.25,9.31 11.9875,9.0475 11.6666667,9.0475 C10.9433333,9.0475 10.2375,8.93083333 9.58416667,8.715 C9.52583333,8.69166667 9.46166667,8.68583333 9.40333333,8.68583333 C9.25166667,8.68583333 9.10583333,8.74416667 8.98916667,8.855 L7.70583333,10.1383333 C6.055,9.2925 4.70166667,7.945 3.86166667,6.29416667 L5.145,5.01083333 C5.30833333,4.8475 5.355,4.62 5.29083333,4.41583333 C5.075,3.7625 4.95833333,3.0625 4.95833333,2.33333333 C4.95833333,2.0125 4.69583333,1.75 4.375,1.75 Z" id="形状" fill-opacity="0.65" fill="#0F1358" fill-rule="nonzero"></path>
                </g>
            </g>
        </g>
    </g>
</svg>