<?xml version="1.0" encoding="UTF-8"?>
<svg width="164px" height="28px" viewBox="0 0 164 28" version="1.1" xmlns="http://www.w3.org/2000/svg" xmlns:xlink="http://www.w3.org/1999/xlink">
    <title>choerodon-logo-02</title>
    <defs>
        <linearGradient x1="50%" y1="0%" x2="50%" y2="100%" id="linearGradient-1">
            <stop stop-color="#95B9FA" offset="0%"></stop>
            <stop stop-color="#5C83F2" offset="100%"></stop>
        </linearGradient>
    </defs>
    <g id="注册&amp;登录" stroke="none" stroke-width="1" fill="none" fill-rule="evenodd">
        <g id="登录" transform="translate(-24.000000, -24.000000)" fill-rule="nonzero">
            <g id="choerodon-logo-02" transform="translate(24.000000, 24.000000)">
                <g>
                    <path d="M26.6793921,23.6939494 C27.9317193,23.976971 31.3038805,21.5971397 31.6541089,21.9117712 C31.8909272,22.1244591 30.69151,23.689769 30.69151,23.689769 L29.5709836,24.669967 C29.5709836,24.669967 26.3045696,23.6092409 26.6794651,23.6939494" id="路径" fill="#FFFFFF"></path>
                    <path d="M27.4489603,23.83315 C28.1309811,24.0600023 28.8138793,24.2841819 29.4976393,24.5056839 L30.5368666,23.5990466 C31.0222529,22.9653832 31.4251724,22.3135314 31.4824613,22.0789146 C31.242067,22.1138981 30.5718967,22.4524386 30.0235292,22.7294463 C29.1568253,23.16729 28.2091872,23.6460579 27.4489603,23.83315 L27.4489603,23.83315 Z M29.576822,24.889989 L29.484357,24.860066 C29.484357,24.860066 28.7485053,24.6217822 28.0137482,24.3798313 C27.6764455,24.2691494 27.3396419,24.156937 27.0033478,24.0431977 C26.8915765,24.0054445 26.7801328,23.9667192 26.669029,23.927026 C26.5344549,23.8783278 26.3952101,23.8280161 26.4386329,23.6710671 C26.4430846,23.6546388 26.488113,23.5123579 26.6714373,23.5539421 C27.3370099,23.7039237 28.8003207,22.9650165 29.8686668,22.4252292 C31.0347323,21.8363036 31.5169075,21.6055739 31.7435087,21.8085808 C31.8407173,21.8957095 32.0989186,22.1270994 30.7983519,23.8198753 L30.7751445,23.8445178 L29.576822,24.889989 Z" id="形状" fill="#0F1358"></path>
                    <path d="M32.0773897,11.293216 C33.223167,11.86674 34.1304474,15.0132747 34.5985376,14.9888522 C34.9150494,14.9724239 34.9691272,12.9818115 34.9691272,12.9818115 L34.7172751,11.5006234 C34.7172751,11.5006234 31.7344593,11.1215988 32.0773897,11.293216" id="路径" fill="#FFFFFF"></path>
                    <path d="M32.2276287,11.1616428 L32.1024216,11.3171251 L32.228726,11.1620095 L32.2276287,11.1616428 M32.5865673,11.4639531 C33.1215066,11.9851852 33.5809852,12.9156582 33.96493,13.693436 C34.178103,14.1254126 34.4636716,14.7037771 34.6145931,14.8393106 C34.7110719,14.6454712 34.8196653,13.9273194 34.8452811,13.0285295 L34.6159067,11.6817015 C33.8629048,11.5876054 33.0718806,11.5014302 32.5865673,11.4639531 M34.635976,15.2090209 C34.3434744,15.2090209 34.1219818,14.7858453 33.6591462,13.8481848 C33.2034625,12.9255592 32.6365582,11.7771177 32.0267419,11.4723872 C31.8743609,11.3962596 31.9037716,11.2672534 31.9112155,11.2420975 C31.9608415,11.0751008 31.9832462,10.9986065 34.7840513,11.3540154 L34.9097949,11.3700037 L35.1880655,13.0038137 L35.1875547,13.0209754 C35.1287332,15.1837917 34.7823728,15.2019069 34.6520315,15.2085808 C34.6466847,15.2088744 34.6413308,15.2090209 34.635976,15.2090209" id="形状" fill="#0F1358"></path>
                    <path d="M21.9058066,1.61019436 L16.447309,0.320865422 C16.447309,0.320865422 9.13929341,2.99435278 4.82861653,7.25933261 C7.82004398,7.87106713 8.69149153,7.70876421 8.69149153,7.70876421 L21.9058066,1.61019436 Z" id="路径" fill="#FF754A"></path>
                    <path d="M5.41931215,7.09079575 C7.58935595,7.50245692 8.44365331,7.45309864 8.6085139,7.43674366 L21.0364754,1.69438944 L16.4682541,0.614081395 C15.6921907,0.909204253 9.42953267,3.36120278 5.41931215,7.09079575 M8.32652133,8.0216355 C7.8039885,8.0216355 6.72783361,7.94880822 4.76570826,7.54712138 C4.6622118,7.52593252 4.57873113,7.44919894 4.54852142,7.34748808 C4.51847097,7.24585063 4.54667923,7.13584394 4.62186577,7.06145949 C8.92984239,2.7940594 16.2774129,0.0718738715 16.3511221,0.0449578414 C16.4036673,0.0256692419 16.4605913,0.0223689236 16.515034,0.0350568287 L21.9771805,1.32673267 C22.0959557,1.35478943 22.1838953,1.45554802 22.1960882,1.57755041 C22.2082811,1.6995528 22.1420362,1.81587345 22.0311853,1.86710671 L8.80803969,7.97682436 C8.78653816,7.98669348 8.76391718,7.99388526 8.74067966,7.99823981 C8.72754335,8.00073339 8.6063975,8.0216355 8.32652133,8.0216355" id="形状" fill="#0F1358"></path>
                    <path d="M0.303890956,14.9224789 C0.303890956,14.9224789 12.2196828,1.85889256 21.8792421,1.64466447 C31.5388014,1.43050972 34.4368151,10.8210488 35.1880655,12.7638431 C31.55077,13.7618628 27.9428852,14.1355336 23.7430641,12.9433077 C23.1865229,19.3026036 26.4087113,23.4179685 31.5546379,23.6096076 C26.7864529,27.2555922 23.9162443,27.8024203 20.3766683,27.5512284 C14.5917337,27.1406674 5.56527104,22.3702237 1.48681477,10.173304 C0.387963282,12.3859186 0.303890956,14.9224789 0.303890956,14.9224789" id="路径" fill="url(#linearGradient-1)"></path>
                    <path d="M18.421476,22.9955996 C11.3021122,22.2083608 6.82657479,18.1576824 2.4932743,12.7154382 C6.90838473,23.0387239 15.0588021,27.1701503 20.4241049,27.5510084 C23.9668921,27.8025669 26.8396549,27.2550055 31.6120727,23.6035937 C30.1676636,23.6081408 28.0235275,23.0420242 26.5171588,21.6300697 C25.2271741,22.3510818 23.2612538,23.5306931 18.421476,22.9955996" id="路径" fill="#CFDAFF"></path>
                    <path d="M1.4474059,10.9479281 C0.96617944,12.1438944 0.75089007,13.3589292 0.656235717,14.1273194 C1.1352865,13.6327187 1.62236802,13.1460381 2.11728422,12.6674734 C1.87810145,12.100663 1.65469747,11.5272582 1.44733291,10.9479281 M2.80029885,12.8063806 C4.6310612,16.9964063 7.2476662,20.5050238 10.4665706,23.0590392 C13.5495872,25.5051705 17.1692947,27.0395306 20.3976864,27.2685735 C23.7486835,27.5064173 26.445274,27.0187752 30.7753634,23.8412174 C28.7134752,23.6013935 26.9618955,22.713458 25.6755598,21.2473781 C23.9239072,19.2508984 23.157769,16.3702237 23.4599768,12.916905 C23.4674717,12.8313441 23.5125941,12.7536162 23.5830202,12.7049505 C23.6533606,12.6562702 23.7416934,12.6417936 23.8237794,12.6654932 C28.4388535,13.9949395 31.8576486,13.4233223 34.8511924,12.5627429 C34.6251751,11.686762 33.8064917,8.99486615 31.7583965,6.47715437 C29.2296587,3.36868354 25.9104077,1.83527685 21.8869049,1.92687934 C19.1752807,1.98701869 14.5026987,3.19149248 7.64204711,8.58775211 C5.71845491,10.1007701 4.04313877,11.6165016 2.80029885,12.8063073 M21.7768519,27.8969564 C21.3127027,27.8969564 20.8417663,27.877081 20.3574017,27.8426843 C17.0172785,27.6057206 13.2830663,26.0267693 10.1121094,23.5108177 C6.86904882,20.9377338 4.22544142,17.4215622 2.36118153,13.2302897 C1.20555201,14.3564356 0.523048247,15.1012101 0.509036178,15.1166117 C0.428076425,15.2052704 0.300784149,15.2339673 0.189897084,15.1885589 C0.0790258048,15.1429542 0.00810552334,15.0328289 0.0119572396,14.9125046 C0.0157681338,14.8063806 0.111225226,12.286322 1.22540242,10.0425376 C1.27700045,9.93848933 1.38587429,9.87590967 1.50127673,9.88396763 C1.61667918,9.89202559 1.71589508,9.96913509 1.7526789,10.0793546 C1.99659166,10.8096226 2.26595458,11.5310551 2.56026943,12.2423176 C3.79785484,11.0647598 5.42909141,9.5976531 7.2895564,8.13443345 C9.73582738,6.21026771 12.0955447,4.66718006 14.3031,3.5480748 C17.0799678,2.14037402 19.6273154,1.40139346 21.8742795,1.35144847 C24.1533546,1.30055003 26.246405,1.76193617 28.1003748,2.72130547 C29.6383437,3.51719838 31.0180931,4.65823249 32.2013088,6.11279795 C34.6333488,9.10223689 35.3944514,12.3411808 35.4731962,12.7006234 C35.505628,12.8483104 35.418774,12.9960265 35.2744002,13.0387239 C32.2080959,13.9434543 28.7216489,14.596773 24.0033088,13.313238 C23.7935659,16.4511918 24.5172301,19.0572791 26.104606,20.8665933 C27.4425381,22.3914925 29.3324138,23.2415841 31.5698176,23.3249725 C31.6906774,23.3295033 31.7956673,23.4098679 31.8321257,23.5257565 C31.868584,23.6416451 31.8286456,23.7680564 31.7323429,23.8415842 C27.5380682,27.0489916 24.8057178,27.8969564 21.7768519,27.8969564" id="形状" fill="#0F1358"></path>
                    <path d="M20.7381355,14.5939861 L14.33127,11.5419875 C14.33127,11.5419875 11.7334937,14.2136413 11.1048488,18.5093509 C15.6219115,17.7249725 20.7381355,14.5939861 20.7381355,14.5939861" id="路径" fill="#FF754A"></path>
                    <path d="M14.3992869,11.8873487 C13.8843439,12.480308 12.0537275,14.7823249 11.448509,18.1573891 C14.981079,17.4420242 18.8245415,15.3659699 20.1304356,14.6192886 L14.3992869,11.8873487 Z M11.0997402,18.8027136 C11.0249972,18.8027136 10.9531896,18.7734754 10.8995576,18.7211588 C10.8337261,18.6569766 10.8026076,18.5649054 10.8159232,18.4737074 C11.4514281,14.1284929 14.015269,11.4475981 14.1240814,11.3355336 C14.2098755,11.247297 14.3419839,11.2236032 14.4528538,11.2765677 L20.8665063,14.3338467 C20.9614626,14.3789678 21.0241269,14.4728098 21.0296884,14.5782178 C21.035094,14.6836284 20.9825582,14.7835322 20.8928519,14.8384305 C20.6817953,14.9675834 15.6724863,18.0123212 11.1487094,18.7984598 C11.1325339,18.8012546 11.1161531,18.8027136 11.0997402,18.8027136 L11.0997402,18.8027136 Z" id="形状" fill="#0F1358"></path>
                    <path d="M28.9848127,9.30509716 C28.9848127,10.4189952 28.0862898,11.3219655 26.977878,11.3219655 C25.8694662,11.3219655 24.9709433,10.4189952 24.9709433,9.30509716 C24.9709433,8.1911991 25.8694662,7.28822882 26.977878,7.28822882 C28.0862898,7.28822882 28.9848127,8.1911991 28.9848127,9.30509716" id="路径" fill="#FFFFFF"></path>
                    <path d="M26.977878,7.5669967 C26.0241826,7.5669967 25.2483382,8.34675469 25.2483382,9.30502384 C25.2483382,10.2634397 26.0241096,11.0431977 26.977878,11.0431977 C27.9315734,11.0431977 28.7074179,10.2634397 28.7074179,9.30502384 C28.7074179,8.34675469 27.9316464,7.5669967 26.977878,7.5669967 M26.977878,11.6153282 C25.710298,11.6153282 24.6790255,10.5789512 24.6790255,9.30502384 C24.6790255,8.03116979 25.710298,6.99486615 26.977878,6.99486615 C28.245458,6.99486615 29.2767305,8.03116976 29.2767305,9.30502384 C29.2767305,10.5789512 28.245458,11.6153282 26.977878,11.6153282" id="形状" fill="#0F1358"></path>
                    <path d="M28.2550183,9.30509716 C28.2550183,9.85192517 27.7975831,10.2951962 27.2333061,10.2951962 C26.669102,10.2951962 26.2115938,9.85192517 26.2115938,9.30509716 C26.2115938,8.75826916 26.669102,8.31499818 27.2333061,8.31499818 C27.7975831,8.31499818 28.2550183,8.75826918 28.2550183,9.30509716 M16.4408868,14.4022736 C16.4275316,14.4022736 16.4140304,14.4013201 16.4004562,14.3993399 C14.9718106,14.1921525 13.536013,13.0580125 13.475659,13.0098277 C13.352388,12.910966 13.3310561,12.7309042 13.4277845,12.6057206 C13.473805,12.5456762 13.541872,12.5066961 13.6167339,12.4975144 C13.6915958,12.4883326 13.7669937,12.5097169 13.8260333,12.5568757 C13.8396805,12.5677301 15.2043231,13.6440777 16.4806606,13.8292629 C16.635742,13.8517052 16.7436056,13.9975798 16.7213468,14.1550422 C16.7012045,14.2987165 16.5797667,14.4022736 16.4408868,14.4022736 M15.4145039,15.4290429 C15.4044328,15.4290429 15.3943616,15.4285295 15.3841445,15.4275761 C13.8388777,15.2691603 12.3229487,14.8271361 12.2590917,14.8083608 C12.1065646,14.7635497 12.020084,14.6062339 12.0658421,14.4569124 C12.1116002,14.3075908 12.2723739,14.2225889 12.424901,14.2676934 C12.4400077,14.2721672 13.9543312,14.7133847 15.4441336,14.8661533 C15.602499,14.8822882 15.7175146,15.0211221 15.7010212,15.1761643 C15.6854766,15.3212321 15.5601709,15.4290429 15.4145039,15.4290429 M11.7598393,16.8958563 C11.6702935,16.8958563 11.6154859,16.8948295 11.6033714,16.8946095 C11.4458087,16.8913091 11.320722,16.7586359 11.3238601,16.5980198 C11.3269252,16.4395306 11.4540554,16.3130913 11.6089178,16.3130913 L11.6147562,16.3130913 C11.6332929,16.313678 13.4929552,16.3460946 14.9040127,15.9526219 C15.0558099,15.9107444 15.2128617,16.0014668 15.254533,16.156509 C15.2961313,16.3114045 15.2065125,16.4713604 15.0545693,16.5137514 C13.7921709,16.8655666 12.2519397,16.8958563 11.7598393,16.8958563" id="形状" fill="#0E1028"></path>
                    <path d="M32.6553139,16.1895123 C34.3382199,15.8955629 35.9799655,16.3176385 37.2737451,17.2374771 C37.2959308,17.1190319 37.3071696,16.993326 37.3038856,16.8577191 C37.249151,14.5966263 34.2429817,14.0844885 32.3624474,14.3009168 C30.4817671,14.5171984 28.4020719,15.73326 28.1904315,18.1690502 C28.1593422,18.5279061 28.2157553,18.8885955 28.3398934,19.2427576 C29.2234555,17.6839751 30.7641246,16.5198387 32.6553139,16.1895123" id="路径" fill="#FFC7C7"></path>
                    <path d="M33.1110705,14.3780712 C32.8340405,14.3780712 32.5643815,14.3934727 32.3108509,14.4224422 C29.5691592,14.7363403 28.4435242,16.5977998 28.312818,18.096443 C28.29523,18.2979098 28.3078554,18.5061973 28.3504024,18.7190319 C29.3094253,17.253612 30.8209026,16.2536854 32.5535805,15.9524019 C34.1231495,15.6795013 35.7028625,16.0008067 37.0352483,16.8572791 C37.0355402,16.8342501 37.0354115,16.8108544 37.0348104,16.7873854 C37.0207254,16.2040337 36.7885048,15.7114778 36.3449357,15.3236524 C35.5753674,14.6507517 34.2781578,14.3780712 33.1111435,14.3780712 M28.2911431,19.3160983 C28.2186723,19.3160983 28.1540464,19.2702668 28.1298585,19.2016135 C27.993314,18.8139347 27.940185,18.4319765 27.972077,18.06652 C28.0722777,16.9184452 28.5961242,15.9303264 29.4871302,15.2090209 C30.2375049,14.6015401 31.2265223,14.2010268 32.2720988,14.0812615 C33.6682686,13.9217455 35.5386588,14.1634764 36.5695664,15.0646865 C37.0885962,15.5184452 37.3602257,16.0952695 37.376865,16.7789512 C37.3802221,16.920132 37.3694941,17.0548588 37.3440243,17.1909058 C37.3332232,17.2483806 37.2940838,17.296393 37.240136,17.3183459 C37.1861882,17.3402989 37.1248347,17.3331799 37.0772844,17.2994499 C35.7718281,16.3753575 34.1858388,16.0170884 32.6119641,16.2907957 C30.8492186,16.5973597 29.328327,17.6683535 28.4395833,19.2295563 C28.4091332,19.2830743 28.3524884,19.3160983 28.2911431,19.3160983" id="形状" fill="#231815"></path>
                    <path d="M33.013424,18.4046938 C34.0689257,18.2216355 35.0985197,18.4813348 35.9133352,19.0492116 C36.446742,18.423689 37.0869907,17.9835717 37.23149,17.2174551 C35.9421621,16.3072974 34.305963,15.8898423 32.6288224,16.1805647 C30.7440552,16.5074441 29.2085677,17.6591126 28.3279977,19.2014668 C28.5952485,19.9581958 29.1794489,20.6844151 29.8922392,21.2962963 C30.2613692,19.8473047 31.4466283,18.6763476 33.013424,18.4046938" id="路径" fill="#FFE2E2"></path>
                    <path d="M28.5429222,19.183645 C28.7700342,19.7785845 29.2126546,20.3878988 29.8329798,20.9610561 C30.3023836,19.5281995 31.5268328,18.456839 33.0211599,18.197213 C34.0376905,18.020462 35.0637815,18.2300697 35.9275662,18.787092 C36.0392248,18.6627063 36.1531457,18.5453612 36.2641474,18.4310231 C36.6372184,18.046718 36.9630716,17.7111111 37.0854581,17.2504584 C35.7922624,16.3715438 34.2375082,16.0352769 32.694212,16.3036304 C30.9496383,16.6066006 29.4410072,17.6545655 28.5429222,19.183645 M29.9218688,21.4429776 C29.8813652,21.4429776 29.8415914,21.4286762 29.8100643,21.4015402 C29.0112313,20.7146315 28.4516979,19.9618628 28.1918181,19.2246425 C28.1752232,19.1773594 28.1799112,19.125161 28.2046625,19.0816282 C29.1485786,17.4255225 30.7634678,16.2891822 32.6355365,15.9640631 C34.3075685,15.6738541 35.9912773,16.0538321 37.3776678,17.0341034 C37.4326852,17.0729564 37.4599771,17.1405771 37.4474362,17.2069674 C37.330742,17.8264026 36.9322743,18.236817 36.5103071,18.6714338 C36.3695297,18.8165016 36.2238628,18.9664833 36.0879021,19.1262926 C36.0304627,19.1936724 35.9315778,19.2063835 35.8591115,19.1557022 C35.044296,18.5867987 34.057249,18.3669967 33.0797624,18.5368537 C31.6271795,18.7891456 30.4529402,19.8789879 30.0883349,21.313238 C30.068814,21.3895966 30.0003188,21.4429776 29.9218688,21.4429776" id="形状" fill="#0F1358"></path>
                    <path d="M29.8605661,21.329593 C31.5339117,22.7658966 33.9099035,23.5755776 34.5742354,22.6834617 C35.3812421,21.5996333 34.93074,20.6526586 35.5293904,19.6112945 C35.64426,19.4116612 35.7773745,19.2341034 35.91786,19.0693069 C35.0981549,18.4981298 34.0624306,18.2368904 33.0005797,18.4209754 C31.4242236,18.6942428 30.2318855,19.8720939 29.8605661,21.3296663" id="路径" fill="#F6F6F6"></path>
                    <path d="M30.0789936,21.2346901 C31.2963637,22.2622662 32.8897969,22.9515952 33.823058,22.8461313 C34.1006718,22.8148148 34.3026789,22.7158782 34.423168,22.5519619 C34.8318528,21.9961129 34.8931556,21.483755 34.9578884,20.9412541 C35.0137906,20.4738541 35.0715903,19.9906124 35.3593483,19.4838284 C35.438604,19.3443344 35.5313608,19.2060139 35.6405381,19.0648332 C34.8608987,18.569857 33.9406279,18.3856986 33.0287497,18.5457279 C31.6179111,18.793326 30.4709661,19.843271 30.0789936,21.2346901 M33.6282029,23.2031536 C32.5651113,23.2031536 30.9943018,22.4878621 29.7743773,21.4275027 C29.7248823,21.384385 29.7038165,21.3169017 29.7199347,21.2530986 C30.1162131,19.6779611 31.3920397,18.4811881 32.9704391,18.2040337 C34.0327279,18.0176018 35.1052339,18.2590392 35.9905475,18.883755 C36.0301605,18.9120102 36.0561894,18.9556449 36.0623187,19.004072 C36.068448,19.052499 36.0541176,19.1012926 36.0228044,19.1386139 C35.8724668,19.3169784 35.7524156,19.4864686 35.6557178,19.656839 C35.402771,20.1024569 35.3516125,20.5301063 35.2973887,20.9828383 C35.2301017,21.5465347 35.1604063,22.1293729 34.6973517,22.7591492 C34.5179683,23.0030803 34.2364865,23.1483682 33.8608613,23.1906857 C33.7864223,23.1990466 33.7087722,23.2031536 33.6282029,23.2031536" id="形状" fill="#0F1358"></path>
                    <path d="M32.3944124,14.5815181 C29.7032953,14.889769 28.5990434,16.7107444 28.4711834,18.1763843 C28.4449108,18.4783278 28.4900851,18.7975798 28.6054656,19.1256326 C28.8391458,19.7893656 29.3535049,20.4767877 30.0930786,21.1136047 C31.3067267,22.1586359 32.9243891,22.8684268 33.8578692,22.7641364 C34.1045397,22.7365603 34.28115,22.653172 34.3828103,22.516245 C34.7760236,21.9865053 34.8359397,21.490209 34.8993589,20.9646498 C34.9570126,20.4872021 35.0165638,19.993326 35.3179689,19.4674734 C35.4292626,19.2731206 35.5660991,19.0812615 35.7362871,18.8811881 C35.882246,18.7094976 36.0333864,18.5535753 36.1797102,18.402787 C36.5691285,18.0011735 36.9054908,17.6541988 36.9967151,17.1691969 C37.0164196,17.0644665 37.0247392,16.9603227 37.021966,16.8511184 C37.0085378,16.2973964 36.7880669,15.829703 36.3668295,15.4612395 C35.6949808,14.8737807 34.2060541,14.3736707 32.3944854,14.5815181 M33.6784127,23.3498417 C32.58051,23.3498417 30.9672264,22.6254492 29.7196428,21.5511551 C28.9038785,20.8488449 28.3315737,20.0764943 28.0645419,19.3177118 C27.9215022,18.9115512 27.8660379,18.5105977 27.8996084,18.1261459 C28.0032392,16.9382472 28.5452575,15.9156582 29.4669879,15.1691969 C30.2391105,14.5439677 31.2555682,14.1318665 32.3293877,14.0088742 C33.7597848,13.8451045 35.679728,14.0960763 36.7436224,15.0266227 C37.2914791,15.5056839 37.5781423,16.1147781 37.5957304,16.837037 C37.5993794,16.9873854 37.5878486,17.1309864 37.5606273,17.2760543 C37.437292,17.9318665 37.0069322,18.3756509 36.5907304,18.8048405 C36.4510478,18.9490282 36.3064755,19.0981298 36.1726312,19.2553722 C36.0257236,19.4283095 35.9088105,19.5916391 35.8152509,19.7548955 C35.5722293,20.1791712 35.5220925,20.5944261 35.4690364,21.0341034 C35.4026251,21.5843784 35.3273103,22.2079941 34.8428728,22.8607261 C34.6453174,23.1269527 34.3266891,23.2916758 33.9212883,23.336927 C33.8406285,23.3457262 33.7595461,23.3500355 33.6784127,23.3498417" id="形状" fill="#0F1358"></path>
                    <path d="M27.890121,8.97506418 C27.890121,9.17758883 27.726751,9.34176751 27.5252238,9.34176751 C27.3236967,9.34176751 27.1603266,9.17758883 27.1603266,8.97506418 C27.1603266,8.77253952 27.3236967,8.60836085 27.5252238,8.60836085 C27.726751,8.60836085 27.890121,8.77253952 27.890121,8.97506418" id="路径" fill="#FFFFFF"></path>
                </g>
                <path d="M52.511386,4.82790762 C55.8248228,4.82790762 58.8916971,6.62614415 60.5151839,9.52118661 L60.7108452,9.8701998 L58.7633095,10.9945637 L58.562785,10.6356621 C57.3359704,8.43848385 55.0172131,7.07355538 52.511386,7.07355538 C50.0182886,7.07355538 47.7105256,8.42465127 46.4787706,10.6022412 L46.4603112,10.6355 C45.8868769,11.6641409 45.5855713,12.8221585 45.5849414,13.9998379 C45.5846773,15.250544 45.9241548,16.4777801 46.567042,17.5504913 L46.5713534,17.5572435 C47.8207007,19.6354363 50.0968243,20.9262825 52.511386,20.9262825 C54.9261098,20.9262825 57.2022334,19.6352742 58.4515806,17.5572435 L58.6566441,17.2161735 L60.6027209,18.3395647 L60.3919837,18.6926306 C58.7433706,21.4557191 55.7236689,23.1720924 52.511386,23.1720924 C49.4324128,23.1722545 46.5303683,21.5952353 44.8430404,19.0311799 L44.8353654,19.035808 L44.6307883,18.6927927 L44.4200511,18.3394026 C43.7138165,17.0039799 43.3386166,15.5147755 43.339131,13.9998379 C43.339131,12.5670738 43.6769553,11.1497578 44.3190277,9.87537762 L44.3119267,9.8701998 L44.495968,9.54165282 C44.4998321,9.53471791 44.5037054,9.52778777 44.5075881,9.5208624 L44.7085989,9.16309552 C46.3855727,6.48018939 49.3351196,4.82790762 52.511386,4.82790762 Z M144.694797,9.91542723 C148.337956,9.91542723 151.301731,12.8793645 151.301731,16.5220377 C151.301731,20.1651971 148.337956,23.1289723 144.694797,23.1289723 L144.694797,23.1288102 C141.051799,23.1288102 138.088186,20.1651971 138.088186,16.5220377 C138.088186,12.8793645 141.051799,9.91542723 144.694797,9.91542723 Z M64.4553206,4.87102769 L64.455169,10.8349107 C65.2918725,10.2553157 66.3066467,9.91542723 67.399319,9.91542723 C70.1208101,9.91542723 72.3588249,12.0236726 72.5662962,14.6925363 L72.5819945,14.692839 L72.5819945,23.1289723 L70.3433173,23.1289723 L70.3431304,15.0929076 L70.3383101,14.9253796 C70.2485976,13.3821288 68.9646735,12.1541045 67.3994811,12.1541045 C65.7759943,12.1541045 64.4553206,13.4747781 64.4553206,15.0979407 L64.4553206,23.1289723 L62.2166434,23.1289723 L62.2166434,4.87102769 L64.4553206,4.87102769 Z M136.730066,4.87102769 L136.730066,23.1288102 L134.491227,23.1288102 L134.491995,21.4742572 C133.326694,22.5035092 131.796666,23.1288102 130.123294,23.1288102 L130.123294,23.1289723 C126.480296,23.1289723 123.516521,20.1651971 123.516521,16.5220377 C123.516521,12.8792024 126.480296,9.91542723 130.123294,9.91542723 C131.796666,9.91542723 133.326694,10.5407282 134.491995,11.5699331 L134.491227,4.87102769 L136.730066,4.87102769 Z M105.32196,9.91542723 L105.321675,10.8355102 C106.158516,10.2555674 107.173416,9.91542723 108.265958,9.91542723 L108.671222,9.91542723 L108.671222,12.1541045 L108.265958,12.1541045 C106.644903,12.1541045 105.324229,13.4731571 105.322122,15.0943744 L105.32196,23.1289723 L103.083283,23.1289723 L103.08313,15.4989076 L103.082958,15.4991518 L103.083445,15.0935638 L103.083283,9.91542723 L105.32196,9.91542723 Z M158.247629,9.91542723 L158.247438,9.93111348 C160.781845,10.1281348 162.811895,12.1577052 163.009158,14.6924753 L163.02504,14.692839 L163.024878,15.0935638 L163.024878,15.0935638 L163.025203,15.4991518 L163.02413,15.4989076 L163.02504,23.1289723 L160.786201,23.1289723 L160.78613,15.0929076 L160.780976,14.9218912 C160.689377,13.3807722 159.405525,12.1541045 157.842365,12.1541045 C156.221644,12.1541045 154.901181,13.4726125 154.89853,15.0933703 L154.898367,23.1289723 L152.659689,23.1289723 L152.659689,10.0018295 L154.898367,10.0018295 L154.898082,10.8355102 C155.630301,10.3280719 156.49884,10.004224 157.436433,9.93118036 L157.437101,9.91542723 L158.247629,9.91542723 Z M80.5468871,9.91510302 C84.1898844,9.91510302 87.1536596,12.8788782 87.1536596,16.5217135 C87.1536596,20.165035 84.1898844,23.1286481 80.5468871,23.1286481 C76.9038898,23.1286481 73.9401145,20.165035 73.9401145,16.5217135 C73.9401145,12.8788782 76.9038898,9.91510302 80.5468871,9.91510302 Z M115.551629,9.91510302 C119.194626,9.91510302 122.158401,12.8790403 122.158401,16.5218756 C122.158401,20.165035 119.194626,23.1286481 115.551629,23.1286481 C111.908631,23.1286481 108.944856,20.165035 108.944856,16.5218756 C108.944856,12.8790403 111.908631,9.91510302 115.551629,9.91510302 Z M95.1185522,9.91526513 C98.7615495,9.91526513 101.725325,12.8788782 101.725325,16.5218756 L101.725325,16.9271394 L90.7690888,16.9270554 C90.9741615,19.1463973 92.8465844,20.8899709 95.1185522,20.8899709 C96.6694157,20.8899709 98.1184769,20.0523717 98.8996634,18.7041401 L99.1022953,18.3539921 L101.042536,19.4739792 L100.839418,19.8250997 C99.6604246,21.8627661 97.4682717,23.1288102 95.1185522,23.1288102 C91.6117039,23.1288102 88.7342575,20.3824246 88.5240792,16.9273748 L88.5119418,16.9271394 L88.5117797,16.1166118 L88.5242413,16.1163945 C88.7344194,12.6615005 91.6118599,9.91526513 95.1185522,9.91526513 Z M80.5468871,12.1537802 C78.1383233,12.1537802 76.1787918,14.1134739 76.1787918,16.5218756 C76.1787918,18.9304394 78.1383233,20.8899709 80.5468871,20.8899709 C82.9552888,20.8899709 84.9148203,18.9304394 84.9148203,16.5217135 C84.9148203,14.1134739 82.9552888,12.1537802 80.5468871,12.1537802 Z M144.694797,12.1541045 C142.286395,12.1541045 140.326864,14.1134739 140.326864,16.5220377 C140.326864,18.9307636 142.286395,20.8902951 144.694797,20.8902951 C147.103361,20.8902951 149.062892,18.9306015 149.062892,16.5220377 C149.062892,14.1134739 147.103361,12.1541045 144.694797,12.1541045 Z M115.551629,12.1537802 C113.143227,12.1537802 111.183695,14.1134739 111.183695,16.5220377 C111.183695,18.9306015 113.143227,20.8899709 115.551629,20.8899709 C117.960192,20.8899709 119.919724,18.9304394 119.919724,16.5218756 C119.919724,14.1133118 117.960192,12.1537802 115.551629,12.1537802 Z M130.123294,12.1539423 C127.714892,12.1541045 125.755361,14.1134739 125.755361,16.5218756 C125.755361,18.9307636 127.714892,20.890133 130.123294,20.890133 C132.531695,20.890133 134.491227,18.9306015 134.491227,16.5218756 C134.491227,14.1134739 132.531695,12.1539423 130.123294,12.1539423 Z M95.1183901,12.1539423 C93.3643102,12.1539423 91.8483855,13.1932274 91.1540532,14.6882976 L99.082727,14.6882976 C98.3883947,13.1932274 96.87247,12.1539423 95.1183901,12.1539423 Z" id="形状结合" fill="#0F1358"></path>
            </g>
        </g>
    </g>
</svg>